<?xml version="1.0" encoding="utf-8" standalone="no"?>
<!DOCTYPE svg PUBLIC "-//W3C//DTD SVG 1.1//EN"
  "http://www.w3.org/Graphics/SVG/1.1/DTD/svg11.dtd">
<svg xmlns:xlink="http://www.w3.org/1999/xlink" width="648pt" height="360pt" viewBox="0 0 648 360" xmlns="http://www.w3.org/2000/svg" version="1.1">
 <metadata>
  <rdf:RDF xmlns:dc="http://purl.org/dc/elements/1.1/" xmlns:cc="http://creativecommons.org/ns#" xmlns:rdf="http://www.w3.org/1999/02/22-rdf-syntax-ns#">
   <cc:Work>
    <dc:type rdf:resource="http://purl.org/dc/dcmitype/StillImage"/>
    <dc:date>2026-09-04T10:59:35.269877</dc:date>
    <dc:format>image/svg+xml</dc:format>
    <dc:creator>
     <cc:Agent>
      <dc:title>Matplotlib v3.9.4, https://matplotlib.org/</dc:title>
     </cc:Agent>
    </dc:creator>
   </cc:Work>
  </rdf:RDF>
 </metadata>
 <defs>
  <style type="text/css">*{stroke-linejoin: round; stroke-linecap: butt}</style>
 </defs>
 <g id="figure_1">
  <g id="patch_1">
   <path d="M 0 360 
L 648 360 
L 648 0 
L 0 0 
z
" style="fill: #ffffff"/>
  </g>
  <g id="axes_1">
   <g id="patch_2">
    <path d="M 54.02 234.525 
L 637.2 234.525 
L 637.2 26.88 
L 54.02 26.88 
z
" style="fill: #ffffff"/>
   </g>
   <g id="matplotlib.axis_1">
    <g id="xtick_1">
     <g id="line2d_1">
      <defs>
       <path id="mc40fc1168a" d="M 0 0 
L 0 3.5 
" style="stroke: #000000; stroke-width: 0.8"/>
      </defs>
      <g>
       <use xlink:href="#mc40fc1168a" x="80.528182" y="234.525" style="stroke: #000000; stroke-width: 0.8"/>
      </g>
     </g>
    </g>
    <g id="xtick_2">
     <g id="line2d_2">
      <g>
       <use xlink:href="#mc40fc1168a" x="186.667048" y="234.525" style="stroke: #000000; stroke-width: 0.8"/>
      </g>
     </g>
    </g>
    <g id="xtick_3">
     <g id="line2d_3">
      <g>
       <use xlink:href="#mc40fc1168a" x="292.805914" y="234.525" style="stroke: #000000; stroke-width: 0.8"/>
      </g>
     </g>
    </g>
    <g id="xtick_4">
     <g id="line2d_4">
      <g>
       <use xlink:href="#mc40fc1168a" x="398.94478" y="234.525" style="stroke: #000000; stroke-width: 0.8"/>
      </g>
     </g>
    </g>
    <g id="xtick_5">
     <g id="line2d_5">
      <g>
       <use xlink:href="#mc40fc1168a" x="505.083646" y="234.525" style="stroke: #000000; stroke-width: 0.8"/>
      </g>
     </g>
    </g>
    <g id="xtick_6">
     <g id="line2d_6">
      <g>
       <use xlink:href="#mc40fc1168a" x="611.222513" y="234.525" style="stroke: #000000; stroke-width: 0.8"/>
      </g>
     </g>
    </g>
   </g>
   <g id="matplotlib.axis_2">
    <g id="ytick_1">
     <g id="line2d_7">
      <defs>
       <path id="md6c88ae98e" d="M 0 0 
L -3.5 0 
" style="stroke: #000000; stroke-width: 0.8"/>
      </defs>
      <g>
       <use xlink:href="#md6c88ae98e" x="54.02" y="225.094044" style="stroke: #000000; stroke-width: 0.8"/>
      </g>
     </g>
     <g id="text_1">
      <!-- 0.02 -->
      <g transform="translate(24.754375 228.893262) scale(0.1 -0.1)">
       <defs>
        <path id="DejaVuSans-30" d="M 2034 4250 
Q 1547 4250 1301 3770 
Q 1056 3291 1056 2328 
Q 1056 1369 1301 889 
Q 1547 409 2034 409 
Q 2525 409 2770 889 
Q 3016 1369 3016 2328 
Q 3016 3291 2770 3770 
Q 2525 4250 2034 4250 
z
M 2034 4750 
Q 2819 4750 3233 4129 
Q 3647 3509 3647 2328 
Q 3647 1150 3233 529 
Q 2819 -91 2034 -91 
Q 1250 -91 836 529 
Q 422 1150 422 2328 
Q 422 3509 836 4129 
Q 1250 4750 2034 4750 
z
" transform="scale(0.015625)"/>
        <path id="DejaVuSans-2e" d="M 684 794 
L 1344 794 
L 1344 0 
L 684 0 
L 684 794 
z
" transform="scale(0.015625)"/>
        <path id="DejaVuSans-32" d="M 1228 531 
L 3431 531 
L 3431 0 
L 469 0 
L 469 531 
Q 828 903 1448 1529 
Q 2069 2156 2228 2338 
Q 2531 2678 2651 2914 
Q 2772 3150 2772 3378 
Q 2772 3750 2511 3984 
Q 2250 4219 1831 4219 
Q 1534 4219 1204 4116 
Q 875 4013 500 3803 
L 500 4441 
Q 881 4594 1212 4672 
Q 1544 4750 1819 4750 
Q 2544 4750 2975 4387 
Q 3406 4025 3406 3419 
Q 3406 3131 3298 2873 
Q 3191 2616 2906 2266 
Q 2828 2175 2409 1742 
Q 1991 1309 1228 531 
z
" transform="scale(0.015625)"/>
       </defs>
       <use xlink:href="#DejaVuSans-30"/>
       <use xlink:href="#DejaVuSans-2e" x="63.623047"/>
       <use xlink:href="#DejaVuSans-30" x="95.410156"/>
       <use xlink:href="#DejaVuSans-32" x="159.033203"/>
      </g>
     </g>
    </g>
    <g id="ytick_2">
     <g id="line2d_8">
      <g>
       <use xlink:href="#md6c88ae98e" x="54.02" y="187.337426" style="stroke: #000000; stroke-width: 0.8"/>
      </g>
     </g>
     <g id="text_2">
      <!-- 0.04 -->
      <g transform="translate(24.754375 191.136645) scale(0.1 -0.1)">
       <defs>
        <path id="DejaVuSans-34" d="M 2419 4116 
L 825 1625 
L 2419 1625 
L 2419 4116 
z
M 2253 4666 
L 3047 4666 
L 3047 1625 
L 3713 1625 
L 3713 1100 
L 3047 1100 
L 3047 0 
L 2419 0 
L 2419 1100 
L 313 1100 
L 313 1709 
L 2253 4666 
z
" transform="scale(0.015625)"/>
       </defs>
       <use xlink:href="#DejaVuSans-30"/>
       <use xlink:href="#DejaVuSans-2e" x="63.623047"/>
       <use xlink:href="#DejaVuSans-30" x="95.410156"/>
       <use xlink:href="#DejaVuSans-34" x="159.033203"/>
      </g>
     </g>
    </g>
    <g id="ytick_3">
     <g id="line2d_9">
      <g>
       <use xlink:href="#md6c88ae98e" x="54.02" y="149.580809" style="stroke: #000000; stroke-width: 0.8"/>
      </g>
     </g>
     <g id="text_3">
      <!-- 0.06 -->
      <g transform="translate(24.754375 153.380027) scale(0.1 -0.1)">
       <defs>
        <path id="DejaVuSans-36" d="M 2113 2584 
Q 1688 2584 1439 2293 
Q 1191 2003 1191 1497 
Q 1191 994 1439 701 
Q 1688 409 2113 409 
Q 2538 409 2786 701 
Q 3034 994 3034 1497 
Q 3034 2003 2786 2293 
Q 2538 2584 2113 2584 
z
M 3366 4563 
L 3366 3988 
Q 3128 4100 2886 4159 
Q 2644 4219 2406 4219 
Q 1781 4219 1451 3797 
Q 1122 3375 1075 2522 
Q 1259 2794 1537 2939 
Q 1816 3084 2150 3084 
Q 2853 3084 3261 2657 
Q 3669 2231 3669 1497 
Q 3669 778 3244 343 
Q 2819 -91 2113 -91 
Q 1303 -91 875 529 
Q 447 1150 447 2328 
Q 447 3434 972 4092 
Q 1497 4750 2381 4750 
Q 2619 4750 2861 4703 
Q 3103 4656 3366 4563 
z
" transform="scale(0.015625)"/>
       </defs>
       <use xlink:href="#DejaVuSans-30"/>
       <use xlink:href="#DejaVuSans-2e" x="63.623047"/>
       <use xlink:href="#DejaVuSans-30" x="95.410156"/>
       <use xlink:href="#DejaVuSans-36" x="159.033203"/>
      </g>
     </g>
    </g>
    <g id="ytick_4">
     <g id="line2d_10">
      <g>
       <use xlink:href="#md6c88ae98e" x="54.02" y="111.824191" style="stroke: #000000; stroke-width: 0.8"/>
      </g>
     </g>
     <g id="text_4">
      <!-- 0.08 -->
      <g transform="translate(24.754375 115.62341) scale(0.1 -0.1)">
       <defs>
        <path id="DejaVuSans-38" d="M 2034 2216 
Q 1584 2216 1326 1975 
Q 1069 1734 1069 1313 
Q 1069 891 1326 650 
Q 1584 409 2034 409 
Q 2484 409 2743 651 
Q 3003 894 3003 1313 
Q 3003 1734 2745 1975 
Q 2488 2216 2034 2216 
z
M 1403 2484 
Q 997 2584 770 2862 
Q 544 3141 544 3541 
Q 544 4100 942 4425 
Q 1341 4750 2034 4750 
Q 2731 4750 3128 4425 
Q 3525 4100 3525 3541 
Q 3525 3141 3298 2862 
Q 3072 2584 2669 2484 
Q 3125 2378 3379 2068 
Q 3634 1759 3634 1313 
Q 3634 634 3220 271 
Q 2806 -91 2034 -91 
Q 1263 -91 848 271 
Q 434 634 434 1313 
Q 434 1759 690 2068 
Q 947 2378 1403 2484 
z
M 1172 3481 
Q 1172 3119 1398 2916 
Q 1625 2713 2034 2713 
Q 2441 2713 2670 2916 
Q 2900 3119 2900 3481 
Q 2900 3844 2670 4047 
Q 2441 4250 2034 4250 
Q 1625 4250 1398 4047 
Q 1172 3844 1172 3481 
z
" transform="scale(0.015625)"/>
       </defs>
       <use xlink:href="#DejaVuSans-30"/>
       <use xlink:href="#DejaVuSans-2e" x="63.623047"/>
       <use xlink:href="#DejaVuSans-30" x="95.410156"/>
       <use xlink:href="#DejaVuSans-38" x="159.033203"/>
      </g>
     </g>
    </g>
    <g id="ytick_5">
     <g id="line2d_11">
      <g>
       <use xlink:href="#md6c88ae98e" x="54.02" y="74.067574" style="stroke: #000000; stroke-width: 0.8"/>
      </g>
     </g>
     <g id="text_5">
      <!-- 0.10 -->
      <g transform="translate(24.754375 77.866793) scale(0.1 -0.1)">
       <defs>
        <path id="DejaVuSans-31" d="M 794 531 
L 1825 531 
L 1825 4091 
L 703 3866 
L 703 4441 
L 1819 4666 
L 2450 4666 
L 2450 531 
L 3481 531 
L 3481 0 
L 794 0 
L 794 531 
z
" transform="scale(0.015625)"/>
       </defs>
       <use xlink:href="#DejaVuSans-30"/>
       <use xlink:href="#DejaVuSans-2e" x="63.623047"/>
       <use xlink:href="#DejaVuSans-31" x="95.410156"/>
       <use xlink:href="#DejaVuSans-30" x="159.033203"/>
      </g>
     </g>
    </g>
    <g id="ytick_6">
     <g id="line2d_12">
      <g>
       <use xlink:href="#md6c88ae98e" x="54.02" y="36.310956" style="stroke: #000000; stroke-width: 0.8"/>
      </g>
     </g>
     <g id="text_6">
      <!-- 0.12 -->
      <g transform="translate(24.754375 40.110175) scale(0.1 -0.1)">
       <use xlink:href="#DejaVuSans-30"/>
       <use xlink:href="#DejaVuSans-2e" x="63.623047"/>
       <use xlink:href="#DejaVuSans-31" x="95.410156"/>
       <use xlink:href="#DejaVuSans-32" x="159.033203"/>
      </g>
     </g>
    </g>
    <g id="text_7">
     <!-- input current -->
     <g transform="translate(18.674688 163.186875) rotate(-90) scale(0.1 -0.1)">
      <defs>
       <path id="DejaVuSans-69" d="M 603 3500 
L 1178 3500 
L 1178 0 
L 603 0 
L 603 3500 
z
M 603 4863 
L 1178 4863 
L 1178 4134 
L 603 4134 
L 603 4863 
z
" transform="scale(0.015625)"/>
       <path id="DejaVuSans-6e" d="M 3513 2113 
L 3513 0 
L 2938 0 
L 2938 2094 
Q 2938 2591 2744 2837 
Q 2550 3084 2163 3084 
Q 1697 3084 1428 2787 
Q 1159 2491 1159 1978 
L 1159 0 
L 581 0 
L 581 3500 
L 1159 3500 
L 1159 2956 
Q 1366 3272 1645 3428 
Q 1925 3584 2291 3584 
Q 2894 3584 3203 3211 
Q 3513 2838 3513 2113 
z
" transform="scale(0.015625)"/>
       <path id="DejaVuSans-70" d="M 1159 525 
L 1159 -1331 
L 581 -1331 
L 581 3500 
L 1159 3500 
L 1159 2969 
Q 1341 3281 1617 3432 
Q 1894 3584 2278 3584 
Q 2916 3584 3314 3078 
Q 3713 2572 3713 1747 
Q 3713 922 3314 415 
Q 2916 -91 2278 -91 
Q 1894 -91 1617 61 
Q 1341 213 1159 525 
z
M 3116 1747 
Q 3116 2381 2855 2742 
Q 2594 3103 2138 3103 
Q 1681 3103 1420 2742 
Q 1159 2381 1159 1747 
Q 1159 1113 1420 752 
Q 1681 391 2138 391 
Q 2594 391 2855 752 
Q 3116 1113 3116 1747 
z
" transform="scale(0.015625)"/>
       <path id="DejaVuSans-75" d="M 544 1381 
L 544 3500 
L 1119 3500 
L 1119 1403 
Q 1119 906 1312 657 
Q 1506 409 1894 409 
Q 2359 409 2629 706 
Q 2900 1003 2900 1516 
L 2900 3500 
L 3475 3500 
L 3475 0 
L 2900 0 
L 2900 538 
Q 2691 219 2414 64 
Q 2138 -91 1772 -91 
Q 1169 -91 856 284 
Q 544 659 544 1381 
z
M 1991 3584 
L 1991 3584 
z
" transform="scale(0.015625)"/>
       <path id="DejaVuSans-74" d="M 1172 4494 
L 1172 3500 
L 2356 3500 
L 2356 3053 
L 1172 3053 
L 1172 1153 
Q 1172 725 1289 603 
Q 1406 481 1766 481 
L 2356 481 
L 2356 0 
L 1766 0 
Q 1100 0 847 248 
Q 594 497 594 1153 
L 594 3053 
L 172 3053 
L 172 3500 
L 594 3500 
L 594 4494 
L 1172 4494 
z
" transform="scale(0.015625)"/>
       <path id="DejaVuSans-20" transform="scale(0.015625)"/>
       <path id="DejaVuSans-63" d="M 3122 3366 
L 3122 2828 
Q 2878 2963 2633 3030 
Q 2388 3097 2138 3097 
Q 1578 3097 1268 2742 
Q 959 2388 959 1747 
Q 959 1106 1268 751 
Q 1578 397 2138 397 
Q 2388 397 2633 464 
Q 2878 531 3122 666 
L 3122 134 
Q 2881 22 2623 -34 
Q 2366 -91 2075 -91 
Q 1284 -91 818 406 
Q 353 903 353 1747 
Q 353 2603 823 3093 
Q 1294 3584 2113 3584 
Q 2378 3584 2631 3529 
Q 2884 3475 3122 3366 
z
" transform="scale(0.015625)"/>
       <path id="DejaVuSans-72" d="M 2631 2963 
Q 2534 3019 2420 3045 
Q 2306 3072 2169 3072 
Q 1681 3072 1420 2755 
Q 1159 2438 1159 1844 
L 1159 0 
L 581 0 
L 581 3500 
L 1159 3500 
L 1159 2956 
Q 1341 3275 1631 3429 
Q 1922 3584 2338 3584 
Q 2397 3584 2469 3576 
Q 2541 3569 2628 3553 
L 2631 2963 
z
" transform="scale(0.015625)"/>
       <path id="DejaVuSans-65" d="M 3597 1894 
L 3597 1613 
L 953 1613 
Q 991 1019 1311 708 
Q 1631 397 2203 397 
Q 2534 397 2845 478 
Q 3156 559 3463 722 
L 3463 178 
Q 3153 47 2828 -22 
Q 2503 -91 2169 -91 
Q 1331 -91 842 396 
Q 353 884 353 1716 
Q 353 2575 817 3079 
Q 1281 3584 2069 3584 
Q 2775 3584 3186 3129 
Q 3597 2675 3597 1894 
z
M 3022 2063 
Q 3016 2534 2758 2815 
Q 2500 3097 2075 3097 
Q 1594 3097 1305 2825 
Q 1016 2553 972 2059 
L 3022 2063 
z
" transform="scale(0.015625)"/>
      </defs>
      <use xlink:href="#DejaVuSans-69"/>
      <use xlink:href="#DejaVuSans-6e" x="27.783203"/>
      <use xlink:href="#DejaVuSans-70" x="91.162109"/>
      <use xlink:href="#DejaVuSans-75" x="154.638672"/>
      <use xlink:href="#DejaVuSans-74" x="218.017578"/>
      <use xlink:href="#DejaVuSans-20" x="257.226562"/>
      <use xlink:href="#DejaVuSans-63" x="289.013672"/>
      <use xlink:href="#DejaVuSans-75" x="343.994141"/>
      <use xlink:href="#DejaVuSans-72" x="407.373047"/>
      <use xlink:href="#DejaVuSans-72" x="446.736328"/>
      <use xlink:href="#DejaVuSans-65" x="485.599609"/>
      <use xlink:href="#DejaVuSans-6e" x="547.123047"/>
      <use xlink:href="#DejaVuSans-74" x="610.501953"/>
     </g>
    </g>
   </g>
   <g id="line2d_13">
    <path d="M 80.528182 130.7025 
L 86.896514 102.664287 
L 90.611374 87.322048 
L 93.264846 77.157108 
L 95.918317 67.836612 
L 98.041095 61.087498 
L 100.163872 55.041355 
L 102.286649 49.759235 
L 103.878732 46.331428 
L 105.470815 43.383034 
L 107.062898 40.930807 
L 108.654981 38.988681 
L 109.71637 37.98289 
L 110.777759 37.211317 
L 111.839147 36.675911 
L 112.900536 36.378024 
L 113.961925 36.318409 
L 115.023313 36.497216 
L 116.084702 36.913995 
L 117.146091 37.567691 
L 118.207479 38.456653 
L 119.268868 39.578637 
L 120.860951 41.692168 
L 122.453034 44.311473 
L 124.045117 47.421669 
L 125.6372 51.005084 
L 127.229283 55.041355 
L 129.35206 61.087498 
L 131.474838 67.836612 
L 134.128309 77.157108 
L 136.781781 87.322048 
L 139.965947 100.408137 
L 144.211502 118.872103 
L 154.294694 163.233878 
L 157.47886 176.175973 
L 160.132331 186.184457 
L 162.785803 195.317958 
L 164.90858 201.897452 
L 167.031358 207.758022 
L 169.154135 212.840488 
L 170.746218 216.110522 
L 172.338301 218.895251 
L 173.930384 221.178851 
L 175.522467 222.948347 
L 176.583856 223.837309 
L 177.645244 224.491005 
L 178.706633 224.907784 
L 179.768022 225.086591 
L 180.82941 225.026976 
L 181.890799 224.729089 
L 182.952188 224.193683 
L 184.013576 223.42211 
L 185.074965 222.416319 
L 186.136354 221.178851 
L 187.728437 218.895251 
L 189.32052 216.110522 
L 190.912603 212.840488 
L 192.504686 209.103729 
L 194.627463 203.432434 
L 196.75024 197.026715 
L 198.873018 189.951257 
L 201.526489 180.274544 
L 204.710655 167.644865 
L 208.425516 151.871763 
L 214.793847 123.592287 
L 220.100791 100.408137 
L 223.815651 85.229027 
L 226.469123 75.220543 
L 229.122594 66.087042 
L 231.245372 59.507548 
L 233.368149 53.646978 
L 235.490926 48.564512 
L 237.083009 45.294478 
L 238.675092 42.509749 
L 240.267175 40.226149 
L 241.859258 38.456653 
L 242.920647 37.567691 
L 243.982036 36.913995 
L 245.043424 36.497216 
L 246.104813 36.318409 
L 247.166202 36.378024 
L 248.22759 36.675911 
L 249.288979 37.211317 
L 250.350368 37.98289 
L 251.411756 38.988681 
L 252.473145 40.226149 
L 254.065228 42.509749 
L 255.657311 45.294478 
L 257.249394 48.564512 
L 258.841477 52.301271 
L 260.964254 57.972566 
L 263.087032 64.378285 
L 265.209809 71.453743 
L 267.863281 81.130456 
L 271.047447 93.760135 
L 274.762307 109.533237 
L 281.130639 137.812713 
L 286.437582 160.996863 
L 290.152442 176.175973 
L 292.805914 186.184457 
L 295.459386 195.317958 
L 297.582163 201.897452 
L 299.70494 207.758022 
L 301.827718 212.840488 
L 303.419801 216.110522 
L 305.011884 218.895251 
L 306.603967 221.178851 
L 308.19605 222.948347 
L 309.257438 223.837309 
L 310.318827 224.491005 
L 311.380216 224.907784 
L 312.441604 225.086591 
L 313.502993 225.026976 
L 314.564382 224.729089 
L 315.62577 224.193683 
L 316.687159 223.42211 
L 317.748548 222.416319 
L 318.809936 221.178851 
L 320.402019 218.895251 
L 321.994102 216.110522 
L 323.586185 212.840488 
L 325.178268 209.103729 
L 327.301046 203.432434 
L 329.423823 197.026715 
L 331.5466 189.951257 
L 334.200072 180.274544 
L 337.384238 167.644865 
L 341.099098 151.871763 
L 347.46743 123.592287 
L 352.774373 100.408137 
L 356.489234 85.229027 
L 359.142705 75.220543 
L 361.796177 66.087042 
L 363.918954 59.507548 
L 366.041732 53.646978 
L 368.164509 48.564512 
L 369.756592 45.294478 
L 371.348675 42.509749 
L 372.940758 40.226149 
L 374.532841 38.456653 
L 375.59423 37.567691 
L 376.655618 36.913995 
L 377.717007 36.497216 
L 378.778396 36.318409 
L 379.839784 36.378024 
L 380.901173 36.675911 
L 381.962562 37.211317 
L 383.02395 37.98289 
L 384.085339 38.988681 
L 385.146728 40.226149 
L 386.738811 42.509749 
L 388.330894 45.294478 
L 389.922977 48.564512 
L 391.51506 52.301271 
L 393.637837 57.972566 
L 395.760614 64.378285 
L 397.883392 71.453743 
L 400.536863 81.130456 
L 403.721029 93.760135 
L 407.43589 109.533237 
L 413.804221 137.812713 
L 419.111165 160.996863 
L 422.826025 176.175973 
L 425.479497 186.184457 
L 428.132968 195.317958 
L 430.255746 201.897452 
L 432.378523 207.758022 
L 434.5013 212.840488 
L 436.093383 216.110522 
L 437.685466 218.895251 
L 439.277549 221.178851 
L 440.869632 222.948347 
L 441.931021 223.837309 
L 442.99241 224.491005 
L 444.053798 224.907784 
L 445.115187 225.086591 
L 446.176576 225.026976 
L 447.237964 224.729089 
L 448.299353 224.193683 
L 449.360742 223.42211 
L 450.42213 222.416319 
L 451.483519 221.178851 
L 453.075602 218.895251 
L 454.667685 216.110522 
L 456.259768 212.840488 
L 457.851851 209.103729 
L 459.974628 203.432434 
L 462.097406 197.026715 
L 464.220183 189.951257 
L 466.873655 180.274544 
L 470.057821 167.644865 
L 473.772681 151.871763 
L 480.141013 123.592287 
L 485.447956 100.408137 
L 489.162816 85.229027 
L 491.816288 75.220543 
L 494.46976 66.087042 
L 496.592537 59.507548 
L 498.715314 53.646978 
L 500.838092 48.564512 
L 502.430175 45.294478 
L 504.022258 42.509749 
L 505.614341 40.226149 
L 507.206424 38.456653 
L 508.267812 37.567691 
L 509.329201 36.913995 
L 510.39059 36.497216 
L 511.451978 36.318409 
L 512.513367 36.378024 
L 513.574756 36.675911 
L 514.636144 37.211317 
L 515.697533 37.98289 
L 516.758922 38.988681 
L 517.82031 40.226149 
L 519.412393 42.509749 
L 521.004476 45.294478 
L 522.596559 48.564512 
L 524.188642 52.301271 
L 526.31142 57.972566 
L 528.434197 64.378285 
L 530.556974 71.453743 
L 533.210446 81.130456 
L 536.394612 93.760135 
L 540.109472 109.533237 
L 546.477804 137.812713 
L 551.784747 160.996863 
L 555.499608 176.175973 
L 558.153079 186.184457 
L 560.806551 195.317958 
L 562.929328 201.897452 
L 565.052106 207.758022 
L 567.174883 212.840488 
L 568.766966 216.110522 
L 570.359049 218.895251 
L 571.951132 221.178851 
L 573.543215 222.948347 
L 574.604604 223.837309 
L 575.665992 224.491005 
L 576.727381 224.907784 
L 577.78877 225.086591 
L 578.850158 225.026976 
L 579.911547 224.729089 
L 580.972936 224.193683 
L 582.034324 223.42211 
L 583.095713 222.416319 
L 584.157102 221.178851 
L 585.749185 218.895251 
L 587.341268 216.110522 
L 588.933351 212.840488 
L 590.525434 209.103729 
L 592.648211 203.432434 
L 594.770988 197.026715 
L 596.893766 189.951257 
L 599.547237 180.274544 
L 602.731403 167.644865 
L 606.446264 151.871763 
L 610.691818 133.074569 
L 610.691818 133.074569 
" clip-path="url(#p0ff1c8c19e)" style="fill: none; stroke: #3d6df2; stroke-width: 1.5; stroke-linecap: square"/>
   </g>
   <g id="line2d_14">
    <path d="M 54.02 168.459117 
L 637.2 168.459117 
" clip-path="url(#p0ff1c8c19e)" style="fill: none; stroke-dasharray: 4.07,1.76; stroke-dashoffset: 0; stroke: #d9534f; stroke-width: 1.1"/>
   </g>
   <g id="patch_3">
    <path d="M 54.02 234.525 
L 54.02 26.88 
" style="fill: none; stroke: #000000; stroke-width: 0.8; stroke-linejoin: miter; stroke-linecap: square"/>
   </g>
   <g id="patch_4">
    <path d="M 637.2 234.525 
L 637.2 26.88 
" style="fill: none; stroke: #000000; stroke-width: 0.8; stroke-linejoin: miter; stroke-linecap: square"/>
   </g>
   <g id="patch_5">
    <path d="M 54.02 234.525 
L 637.2 234.525 
" style="fill: none; stroke: #000000; stroke-width: 0.8; stroke-linejoin: miter; stroke-linecap: square"/>
   </g>
   <g id="patch_6">
    <path d="M 54.02 26.88 
L 637.2 26.88 
" style="fill: none; stroke: #000000; stroke-width: 0.8; stroke-linejoin: miter; stroke-linecap: square"/>
   </g>
   <g id="text_8">
    <!-- LIF neuron with a sine input (rate coding) -->
    <g transform="translate(221.543125 20.88) scale(0.12 -0.12)">
     <defs>
      <path id="DejaVuSans-4c" d="M 628 4666 
L 1259 4666 
L 1259 531 
L 3531 531 
L 3531 0 
L 628 0 
L 628 4666 
z
" transform="scale(0.015625)"/>
      <path id="DejaVuSans-49" d="M 628 4666 
L 1259 4666 
L 1259 0 
L 628 0 
L 628 4666 
z
" transform="scale(0.015625)"/>
      <path id="DejaVuSans-46" d="M 628 4666 
L 3309 4666 
L 3309 4134 
L 1259 4134 
L 1259 2759 
L 3109 2759 
L 3109 2228 
L 1259 2228 
L 1259 0 
L 628 0 
L 628 4666 
z
" transform="scale(0.015625)"/>
      <path id="DejaVuSans-6f" d="M 1959 3097 
Q 1497 3097 1228 2736 
Q 959 2375 959 1747 
Q 959 1119 1226 758 
Q 1494 397 1959 397 
Q 2419 397 2687 759 
Q 2956 1122 2956 1747 
Q 2956 2369 2687 2733 
Q 2419 3097 1959 3097 
z
M 1959 3584 
Q 2709 3584 3137 3096 
Q 3566 2609 3566 1747 
Q 3566 888 3137 398 
Q 2709 -91 1959 -91 
Q 1206 -91 779 398 
Q 353 888 353 1747 
Q 353 2609 779 3096 
Q 1206 3584 1959 3584 
z
" transform="scale(0.015625)"/>
      <path id="DejaVuSans-77" d="M 269 3500 
L 844 3500 
L 1563 769 
L 2278 3500 
L 2956 3500 
L 3675 769 
L 4391 3500 
L 4966 3500 
L 4050 0 
L 3372 0 
L 2619 2869 
L 1863 0 
L 1184 0 
L 269 3500 
z
" transform="scale(0.015625)"/>
      <path id="DejaVuSans-68" d="M 3513 2113 
L 3513 0 
L 2938 0 
L 2938 2094 
Q 2938 2591 2744 2837 
Q 2550 3084 2163 3084 
Q 1697 3084 1428 2787 
Q 1159 2491 1159 1978 
L 1159 0 
L 581 0 
L 581 4863 
L 1159 4863 
L 1159 2956 
Q 1366 3272 1645 3428 
Q 1925 3584 2291 3584 
Q 2894 3584 3203 3211 
Q 3513 2838 3513 2113 
z
" transform="scale(0.015625)"/>
      <path id="DejaVuSans-61" d="M 2194 1759 
Q 1497 1759 1228 1600 
Q 959 1441 959 1056 
Q 959 750 1161 570 
Q 1363 391 1709 391 
Q 2188 391 2477 730 
Q 2766 1069 2766 1631 
L 2766 1759 
L 2194 1759 
z
M 3341 1997 
L 3341 0 
L 2766 0 
L 2766 531 
Q 2569 213 2275 61 
Q 1981 -91 1556 -91 
Q 1019 -91 701 211 
Q 384 513 384 1019 
Q 384 1609 779 1909 
Q 1175 2209 1959 2209 
L 2766 2209 
L 2766 2266 
Q 2766 2663 2505 2880 
Q 2244 3097 1772 3097 
Q 1472 3097 1187 3025 
Q 903 2953 641 2809 
L 641 3341 
Q 956 3463 1253 3523 
Q 1550 3584 1831 3584 
Q 2591 3584 2966 3190 
Q 3341 2797 3341 1997 
z
" transform="scale(0.015625)"/>
      <path id="DejaVuSans-73" d="M 2834 3397 
L 2834 2853 
Q 2591 2978 2328 3040 
Q 2066 3103 1784 3103 
Q 1356 3103 1142 2972 
Q 928 2841 928 2578 
Q 928 2378 1081 2264 
Q 1234 2150 1697 2047 
L 1894 2003 
Q 2506 1872 2764 1633 
Q 3022 1394 3022 966 
Q 3022 478 2636 193 
Q 2250 -91 1575 -91 
Q 1294 -91 989 -36 
Q 684 19 347 128 
L 347 722 
Q 666 556 975 473 
Q 1284 391 1588 391 
Q 1994 391 2212 530 
Q 2431 669 2431 922 
Q 2431 1156 2273 1281 
Q 2116 1406 1581 1522 
L 1381 1569 
Q 847 1681 609 1914 
Q 372 2147 372 2553 
Q 372 3047 722 3315 
Q 1072 3584 1716 3584 
Q 2034 3584 2315 3537 
Q 2597 3491 2834 3397 
z
" transform="scale(0.015625)"/>
      <path id="DejaVuSans-28" d="M 1984 4856 
Q 1566 4138 1362 3434 
Q 1159 2731 1159 2009 
Q 1159 1288 1364 580 
Q 1569 -128 1984 -844 
L 1484 -844 
Q 1016 -109 783 600 
Q 550 1309 550 2009 
Q 550 2706 781 3412 
Q 1013 4119 1484 4856 
L 1984 4856 
z
" transform="scale(0.015625)"/>
      <path id="DejaVuSans-64" d="M 2906 2969 
L 2906 4863 
L 3481 4863 
L 3481 0 
L 2906 0 
L 2906 525 
Q 2725 213 2448 61 
Q 2172 -91 1784 -91 
Q 1150 -91 751 415 
Q 353 922 353 1747 
Q 353 2572 751 3078 
Q 1150 3584 1784 3584 
Q 2172 3584 2448 3432 
Q 2725 3281 2906 2969 
z
M 947 1747 
Q 947 1113 1208 752 
Q 1469 391 1925 391 
Q 2381 391 2643 752 
Q 2906 1113 2906 1747 
Q 2906 2381 2643 2742 
Q 2381 3103 1925 3103 
Q 1469 3103 1208 2742 
Q 947 2381 947 1747 
z
" transform="scale(0.015625)"/>
      <path id="DejaVuSans-67" d="M 2906 1791 
Q 2906 2416 2648 2759 
Q 2391 3103 1925 3103 
Q 1463 3103 1205 2759 
Q 947 2416 947 1791 
Q 947 1169 1205 825 
Q 1463 481 1925 481 
Q 2391 481 2648 825 
Q 2906 1169 2906 1791 
z
M 3481 434 
Q 3481 -459 3084 -895 
Q 2688 -1331 1869 -1331 
Q 1566 -1331 1297 -1286 
Q 1028 -1241 775 -1147 
L 775 -588 
Q 1028 -725 1275 -790 
Q 1522 -856 1778 -856 
Q 2344 -856 2625 -561 
Q 2906 -266 2906 331 
L 2906 616 
Q 2728 306 2450 153 
Q 2172 0 1784 0 
Q 1141 0 747 490 
Q 353 981 353 1791 
Q 353 2603 747 3093 
Q 1141 3584 1784 3584 
Q 2172 3584 2450 3431 
Q 2728 3278 2906 2969 
L 2906 3500 
L 3481 3500 
L 3481 434 
z
" transform="scale(0.015625)"/>
      <path id="DejaVuSans-29" d="M 513 4856 
L 1013 4856 
Q 1481 4119 1714 3412 
Q 1947 2706 1947 2009 
Q 1947 1309 1714 600 
Q 1481 -109 1013 -844 
L 513 -844 
Q 928 -128 1133 580 
Q 1338 1288 1338 2009 
Q 1338 2731 1133 3434 
Q 928 4138 513 4856 
z
" transform="scale(0.015625)"/>
     </defs>
     <use xlink:href="#DejaVuSans-4c"/>
     <use xlink:href="#DejaVuSans-49" x="55.712891"/>
     <use xlink:href="#DejaVuSans-46" x="85.205078"/>
     <use xlink:href="#DejaVuSans-20" x="142.724609"/>
     <use xlink:href="#DejaVuSans-6e" x="174.511719"/>
     <use xlink:href="#DejaVuSans-65" x="237.890625"/>
     <use xlink:href="#DejaVuSans-75" x="299.414062"/>
     <use xlink:href="#DejaVuSans-72" x="362.792969"/>
     <use xlink:href="#DejaVuSans-6f" x="401.65625"/>
     <use xlink:href="#DejaVuSans-6e" x="462.837891"/>
     <use xlink:href="#DejaVuSans-20" x="526.216797"/>
     <use xlink:href="#DejaVuSans-77" x="558.003906"/>
     <use xlink:href="#DejaVuSans-69" x="639.791016"/>
     <use xlink:href="#DejaVuSans-74" x="667.574219"/>
     <use xlink:href="#DejaVuSans-68" x="706.783203"/>
     <use xlink:href="#DejaVuSans-20" x="770.162109"/>
     <use xlink:href="#DejaVuSans-61" x="801.949219"/>
     <use xlink:href="#DejaVuSans-20" x="863.228516"/>
     <use xlink:href="#DejaVuSans-73" x="895.015625"/>
     <use xlink:href="#DejaVuSans-69" x="947.115234"/>
     <use xlink:href="#DejaVuSans-6e" x="974.898438"/>
     <use xlink:href="#DejaVuSans-65" x="1038.277344"/>
     <use xlink:href="#DejaVuSans-20" x="1099.800781"/>
     <use xlink:href="#DejaVuSans-69" x="1131.587891"/>
     <use xlink:href="#DejaVuSans-6e" x="1159.371094"/>
     <use xlink:href="#DejaVuSans-70" x="1222.75"/>
     <use xlink:href="#DejaVuSans-75" x="1286.226562"/>
     <use xlink:href="#DejaVuSans-74" x="1349.605469"/>
     <use xlink:href="#DejaVuSans-20" x="1388.814453"/>
     <use xlink:href="#DejaVuSans-28" x="1420.601562"/>
     <use xlink:href="#DejaVuSans-72" x="1459.615234"/>
     <use xlink:href="#DejaVuSans-61" x="1500.728516"/>
     <use xlink:href="#DejaVuSans-74" x="1562.007812"/>
     <use xlink:href="#DejaVuSans-65" x="1601.216797"/>
     <use xlink:href="#DejaVuSans-20" x="1662.740234"/>
     <use xlink:href="#DejaVuSans-63" x="1694.527344"/>
     <use xlink:href="#DejaVuSans-6f" x="1749.507812"/>
     <use xlink:href="#DejaVuSans-64" x="1810.689453"/>
     <use xlink:href="#DejaVuSans-69" x="1874.166016"/>
     <use xlink:href="#DejaVuSans-6e" x="1901.949219"/>
     <use xlink:href="#DejaVuSans-67" x="1965.328125"/>
     <use xlink:href="#DejaVuSans-29" x="2028.804688"/>
    </g>
   </g>
   <g id="legend_1">
    <g id="patch_7">
     <path d="M 522.9125 49.558125 
L 630.2 49.558125 
Q 632.2 49.558125 632.2 47.558125 
L 632.2 33.88 
Q 632.2 31.88 630.2 31.88 
L 522.9125 31.88 
Q 520.9125 31.88 520.9125 33.88 
L 520.9125 47.558125 
Q 520.9125 49.558125 522.9125 49.558125 
z
" style="fill: #ffffff; opacity: 0.8; stroke: #cccccc; stroke-linejoin: miter"/>
    </g>
    <g id="line2d_15">
     <path d="M 524.9125 39.978438 
L 534.9125 39.978438 
L 544.9125 39.978438 
" style="fill: none; stroke-dasharray: 4.07,1.76; stroke-dashoffset: 0; stroke: #d9534f; stroke-width: 1.1"/>
    </g>
    <g id="text_9">
     <!-- firing condition -->
     <g transform="translate(552.9125 43.478438) scale(0.1 -0.1)">
      <defs>
       <path id="DejaVuSans-66" d="M 2375 4863 
L 2375 4384 
L 1825 4384 
Q 1516 4384 1395 4259 
Q 1275 4134 1275 3809 
L 1275 3500 
L 2222 3500 
L 2222 3053 
L 1275 3053 
L 1275 0 
L 697 0 
L 697 3053 
L 147 3053 
L 147 3500 
L 697 3500 
L 697 3744 
Q 697 4328 969 4595 
Q 1241 4863 1831 4863 
L 2375 4863 
z
" transform="scale(0.015625)"/>
      </defs>
      <use xlink:href="#DejaVuSans-66"/>
      <use xlink:href="#DejaVuSans-69" x="35.205078"/>
      <use xlink:href="#DejaVuSans-72" x="62.988281"/>
      <use xlink:href="#DejaVuSans-69" x="104.101562"/>
      <use xlink:href="#DejaVuSans-6e" x="131.884766"/>
      <use xlink:href="#DejaVuSans-67" x="195.263672"/>
      <use xlink:href="#DejaVuSans-20" x="258.740234"/>
      <use xlink:href="#DejaVuSans-63" x="290.527344"/>
      <use xlink:href="#DejaVuSans-6f" x="345.507812"/>
      <use xlink:href="#DejaVuSans-6e" x="406.689453"/>
      <use xlink:href="#DejaVuSans-64" x="470.068359"/>
      <use xlink:href="#DejaVuSans-69" x="533.544922"/>
      <use xlink:href="#DejaVuSans-74" x="561.328125"/>
      <use xlink:href="#DejaVuSans-69" x="600.537109"/>
      <use xlink:href="#DejaVuSans-6f" x="628.320312"/>
      <use xlink:href="#DejaVuSans-6e" x="689.501953"/>
     </g>
    </g>
   </g>
  </g>
  <g id="axes_2">
   <g id="patch_8">
    <path d="M 54.02 318.04 
L 637.2 318.04 
L 637.2 248.825 
L 54.02 248.825 
z
" style="fill: #ffffff"/>
   </g>
   <g id="matplotlib.axis_3">
    <g id="xtick_7">
     <g id="line2d_16">
      <g>
       <use xlink:href="#mc40fc1168a" x="80.528182" y="318.04" style="stroke: #000000; stroke-width: 0.8"/>
      </g>
     </g>
     <g id="text_10">
      <!-- 0 -->
      <g transform="translate(77.346932 332.638438) scale(0.1 -0.1)">
       <use xlink:href="#DejaVuSans-30"/>
      </g>
     </g>
    </g>
    <g id="xtick_8">
     <g id="line2d_17">
      <g>
       <use xlink:href="#mc40fc1168a" x="186.667048" y="318.04" style="stroke: #000000; stroke-width: 0.8"/>
      </g>
     </g>
     <g id="text_11">
      <!-- 200 -->
      <g transform="translate(177.123298 332.638438) scale(0.1 -0.1)">
       <use xlink:href="#DejaVuSans-32"/>
       <use xlink:href="#DejaVuSans-30" x="63.623047"/>
       <use xlink:href="#DejaVuSans-30" x="127.246094"/>
      </g>
     </g>
    </g>
    <g id="xtick_9">
     <g id="line2d_18">
      <g>
       <use xlink:href="#mc40fc1168a" x="292.805914" y="318.04" style="stroke: #000000; stroke-width: 0.8"/>
      </g>
     </g>
     <g id="text_12">
      <!-- 400 -->
      <g transform="translate(283.262164 332.638438) scale(0.1 -0.1)">
       <use xlink:href="#DejaVuSans-34"/>
       <use xlink:href="#DejaVuSans-30" x="63.623047"/>
       <use xlink:href="#DejaVuSans-30" x="127.246094"/>
      </g>
     </g>
    </g>
    <g id="xtick_10">
     <g id="line2d_19">
      <g>
       <use xlink:href="#mc40fc1168a" x="398.94478" y="318.04" style="stroke: #000000; stroke-width: 0.8"/>
      </g>
     </g>
     <g id="text_13">
      <!-- 600 -->
      <g transform="translate(389.40103 332.638438) scale(0.1 -0.1)">
       <use xlink:href="#DejaVuSans-36"/>
       <use xlink:href="#DejaVuSans-30" x="63.623047"/>
       <use xlink:href="#DejaVuSans-30" x="127.246094"/>
      </g>
     </g>
    </g>
    <g id="xtick_11">
     <g id="line2d_20">
      <g>
       <use xlink:href="#mc40fc1168a" x="505.083646" y="318.04" style="stroke: #000000; stroke-width: 0.8"/>
      </g>
     </g>
     <g id="text_14">
      <!-- 800 -->
      <g transform="translate(495.539896 332.638438) scale(0.1 -0.1)">
       <use xlink:href="#DejaVuSans-38"/>
       <use xlink:href="#DejaVuSans-30" x="63.623047"/>
       <use xlink:href="#DejaVuSans-30" x="127.246094"/>
      </g>
     </g>
    </g>
    <g id="xtick_12">
     <g id="line2d_21">
      <g>
       <use xlink:href="#mc40fc1168a" x="611.222513" y="318.04" style="stroke: #000000; stroke-width: 0.8"/>
      </g>
     </g>
     <g id="text_15">
      <!-- 1000 -->
      <g transform="translate(598.497513 332.638438) scale(0.1 -0.1)">
       <use xlink:href="#DejaVuSans-31"/>
       <use xlink:href="#DejaVuSans-30" x="63.623047"/>
       <use xlink:href="#DejaVuSans-30" x="127.246094"/>
       <use xlink:href="#DejaVuSans-30" x="190.869141"/>
      </g>
     </g>
    </g>
    <g id="text_16">
     <!-- time step -->
     <g transform="translate(321.909219 346.316563) scale(0.1 -0.1)">
      <defs>
       <path id="DejaVuSans-6d" d="M 3328 2828 
Q 3544 3216 3844 3400 
Q 4144 3584 4550 3584 
Q 5097 3584 5394 3201 
Q 5691 2819 5691 2113 
L 5691 0 
L 5113 0 
L 5113 2094 
Q 5113 2597 4934 2840 
Q 4756 3084 4391 3084 
Q 3944 3084 3684 2787 
Q 3425 2491 3425 1978 
L 3425 0 
L 2847 0 
L 2847 2094 
Q 2847 2600 2669 2842 
Q 2491 3084 2119 3084 
Q 1678 3084 1418 2786 
Q 1159 2488 1159 1978 
L 1159 0 
L 581 0 
L 581 3500 
L 1159 3500 
L 1159 2956 
Q 1356 3278 1631 3431 
Q 1906 3584 2284 3584 
Q 2666 3584 2933 3390 
Q 3200 3197 3328 2828 
z
" transform="scale(0.015625)"/>
      </defs>
      <use xlink:href="#DejaVuSans-74"/>
      <use xlink:href="#DejaVuSans-69" x="39.208984"/>
      <use xlink:href="#DejaVuSans-6d" x="66.992188"/>
      <use xlink:href="#DejaVuSans-65" x="164.404297"/>
      <use xlink:href="#DejaVuSans-20" x="225.927734"/>
      <use xlink:href="#DejaVuSans-73" x="257.714844"/>
      <use xlink:href="#DejaVuSans-74" x="309.814453"/>
      <use xlink:href="#DejaVuSans-65" x="349.023438"/>
      <use xlink:href="#DejaVuSans-70" x="410.546875"/>
     </g>
    </g>
   </g>
   <g id="matplotlib.axis_4">
    <g id="text_17">
     <!-- spikes -->
     <g transform="translate(47.940313 298.995781) rotate(-90) scale(0.1 -0.1)">
      <defs>
       <path id="DejaVuSans-6b" d="M 581 4863 
L 1159 4863 
L 1159 1991 
L 2875 3500 
L 3609 3500 
L 1753 1863 
L 3688 0 
L 2938 0 
L 1159 1709 
L 1159 0 
L 581 0 
L 581 4863 
z
" transform="scale(0.015625)"/>
      </defs>
      <use xlink:href="#DejaVuSans-73"/>
      <use xlink:href="#DejaVuSans-70" x="52.099609"/>
      <use xlink:href="#DejaVuSans-69" x="115.576172"/>
      <use xlink:href="#DejaVuSans-6b" x="143.359375"/>
      <use xlink:href="#DejaVuSans-65" x="197.644531"/>
      <use xlink:href="#DejaVuSans-73" x="259.167969"/>
     </g>
    </g>
   </g>
   <g id="EventCollection_1">
    <path d="M 90.08068 267.701818 
L 90.08068 299.163182 
" clip-path="url(#p1b00b590fa)" style="fill: none; stroke: #3d6df2; stroke-width: 1.5"/>
    <path d="M 97.5104 267.701818 
L 97.5104 299.163182 
" clip-path="url(#p1b00b590fa)" style="fill: none; stroke: #3d6df2; stroke-width: 1.5"/>
    <path d="M 103.878732 267.701818 
L 103.878732 299.163182 
" clip-path="url(#p1b00b590fa)" style="fill: none; stroke: #3d6df2; stroke-width: 1.5"/>
    <path d="M 109.71637 267.701818 
L 109.71637 299.163182 
" clip-path="url(#p1b00b590fa)" style="fill: none; stroke: #3d6df2; stroke-width: 1.5"/>
    <path d="M 115.554008 267.701818 
L 115.554008 299.163182 
" clip-path="url(#p1b00b590fa)" style="fill: none; stroke: #3d6df2; stroke-width: 1.5"/>
    <path d="M 121.391645 267.701818 
L 121.391645 299.163182 
" clip-path="url(#p1b00b590fa)" style="fill: none; stroke: #3d6df2; stroke-width: 1.5"/>
    <path d="M 127.759977 267.701818 
L 127.759977 299.163182 
" clip-path="url(#p1b00b590fa)" style="fill: none; stroke: #3d6df2; stroke-width: 1.5"/>
    <path d="M 135.189698 267.701818 
L 135.189698 299.163182 
" clip-path="url(#p1b00b590fa)" style="fill: none; stroke: #3d6df2; stroke-width: 1.5"/>
    <path d="M 144.742196 267.701818 
L 144.742196 299.163182 
" clip-path="url(#p1b00b590fa)" style="fill: none; stroke: #3d6df2; stroke-width: 1.5"/>
    <path d="M 213.201764 267.701818 
L 213.201764 299.163182 
" clip-path="url(#p1b00b590fa)" style="fill: none; stroke: #3d6df2; stroke-width: 1.5"/>
    <path d="M 222.754262 267.701818 
L 222.754262 299.163182 
" clip-path="url(#p1b00b590fa)" style="fill: none; stroke: #3d6df2; stroke-width: 1.5"/>
    <path d="M 230.183983 267.701818 
L 230.183983 299.163182 
" clip-path="url(#p1b00b590fa)" style="fill: none; stroke: #3d6df2; stroke-width: 1.5"/>
    <path d="M 236.552315 267.701818 
L 236.552315 299.163182 
" clip-path="url(#p1b00b590fa)" style="fill: none; stroke: #3d6df2; stroke-width: 1.5"/>
    <path d="M 242.389953 267.701818 
L 242.389953 299.163182 
" clip-path="url(#p1b00b590fa)" style="fill: none; stroke: #3d6df2; stroke-width: 1.5"/>
    <path d="M 248.22759 267.701818 
L 248.22759 299.163182 
" clip-path="url(#p1b00b590fa)" style="fill: none; stroke: #3d6df2; stroke-width: 1.5"/>
    <path d="M 254.065228 267.701818 
L 254.065228 299.163182 
" clip-path="url(#p1b00b590fa)" style="fill: none; stroke: #3d6df2; stroke-width: 1.5"/>
    <path d="M 260.43356 267.701818 
L 260.43356 299.163182 
" clip-path="url(#p1b00b590fa)" style="fill: none; stroke: #3d6df2; stroke-width: 1.5"/>
    <path d="M 267.863281 267.701818 
L 267.863281 299.163182 
" clip-path="url(#p1b00b590fa)" style="fill: none; stroke: #3d6df2; stroke-width: 1.5"/>
    <path d="M 277.415779 267.701818 
L 277.415779 299.163182 
" clip-path="url(#p1b00b590fa)" style="fill: none; stroke: #3d6df2; stroke-width: 1.5"/>
    <path d="M 345.875347 267.701818 
L 345.875347 299.163182 
" clip-path="url(#p1b00b590fa)" style="fill: none; stroke: #3d6df2; stroke-width: 1.5"/>
    <path d="M 355.427845 267.701818 
L 355.427845 299.163182 
" clip-path="url(#p1b00b590fa)" style="fill: none; stroke: #3d6df2; stroke-width: 1.5"/>
    <path d="M 362.857566 267.701818 
L 362.857566 299.163182 
" clip-path="url(#p1b00b590fa)" style="fill: none; stroke: #3d6df2; stroke-width: 1.5"/>
    <path d="M 369.225898 267.701818 
L 369.225898 299.163182 
" clip-path="url(#p1b00b590fa)" style="fill: none; stroke: #3d6df2; stroke-width: 1.5"/>
    <path d="M 375.063535 267.701818 
L 375.063535 299.163182 
" clip-path="url(#p1b00b590fa)" style="fill: none; stroke: #3d6df2; stroke-width: 1.5"/>
    <path d="M 380.901173 267.701818 
L 380.901173 299.163182 
" clip-path="url(#p1b00b590fa)" style="fill: none; stroke: #3d6df2; stroke-width: 1.5"/>
    <path d="M 386.738811 267.701818 
L 386.738811 299.163182 
" clip-path="url(#p1b00b590fa)" style="fill: none; stroke: #3d6df2; stroke-width: 1.5"/>
    <path d="M 393.107143 267.701818 
L 393.107143 299.163182 
" clip-path="url(#p1b00b590fa)" style="fill: none; stroke: #3d6df2; stroke-width: 1.5"/>
    <path d="M 400.536863 267.701818 
L 400.536863 299.163182 
" clip-path="url(#p1b00b590fa)" style="fill: none; stroke: #3d6df2; stroke-width: 1.5"/>
    <path d="M 410.089361 267.701818 
L 410.089361 299.163182 
" clip-path="url(#p1b00b590fa)" style="fill: none; stroke: #3d6df2; stroke-width: 1.5"/>
    <path d="M 478.54893 267.701818 
L 478.54893 299.163182 
" clip-path="url(#p1b00b590fa)" style="fill: none; stroke: #3d6df2; stroke-width: 1.5"/>
    <path d="M 488.101428 267.701818 
L 488.101428 299.163182 
" clip-path="url(#p1b00b590fa)" style="fill: none; stroke: #3d6df2; stroke-width: 1.5"/>
    <path d="M 495.531148 267.701818 
L 495.531148 299.163182 
" clip-path="url(#p1b00b590fa)" style="fill: none; stroke: #3d6df2; stroke-width: 1.5"/>
    <path d="M 501.89948 267.701818 
L 501.89948 299.163182 
" clip-path="url(#p1b00b590fa)" style="fill: none; stroke: #3d6df2; stroke-width: 1.5"/>
    <path d="M 507.737118 267.701818 
L 507.737118 299.163182 
" clip-path="url(#p1b00b590fa)" style="fill: none; stroke: #3d6df2; stroke-width: 1.5"/>
    <path d="M 513.574756 267.701818 
L 513.574756 299.163182 
" clip-path="url(#p1b00b590fa)" style="fill: none; stroke: #3d6df2; stroke-width: 1.5"/>
    <path d="M 519.412393 267.701818 
L 519.412393 299.163182 
" clip-path="url(#p1b00b590fa)" style="fill: none; stroke: #3d6df2; stroke-width: 1.5"/>
    <path d="M 525.780725 267.701818 
L 525.780725 299.163182 
" clip-path="url(#p1b00b590fa)" style="fill: none; stroke: #3d6df2; stroke-width: 1.5"/>
    <path d="M 533.210446 267.701818 
L 533.210446 299.163182 
" clip-path="url(#p1b00b590fa)" style="fill: none; stroke: #3d6df2; stroke-width: 1.5"/>
    <path d="M 542.762944 267.701818 
L 542.762944 299.163182 
" clip-path="url(#p1b00b590fa)" style="fill: none; stroke: #3d6df2; stroke-width: 1.5"/>
   </g>
   <g id="patch_9">
    <path d="M 54.02 318.04 
L 54.02 248.825 
" style="fill: none; stroke: #000000; stroke-width: 0.8; stroke-linejoin: miter; stroke-linecap: square"/>
   </g>
   <g id="patch_10">
    <path d="M 637.2 318.04 
L 637.2 248.825 
" style="fill: none; stroke: #000000; stroke-width: 0.8; stroke-linejoin: miter; stroke-linecap: square"/>
   </g>
   <g id="patch_11">
    <path d="M 54.02 318.04 
L 637.2 318.04 
" style="fill: none; stroke: #000000; stroke-width: 0.8; stroke-linejoin: miter; stroke-linecap: square"/>
   </g>
   <g id="patch_12">
    <path d="M 54.02 248.825 
L 637.2 248.825 
" style="fill: none; stroke: #000000; stroke-width: 0.8; stroke-linejoin: miter; stroke-linecap: square"/>
   </g>
  </g>
 </g>
 <defs>
  <clipPath id="p0ff1c8c19e">
   <rect x="54.02" y="26.88" width="583.18" height="207.645"/>
  </clipPath>
  <clipPath id="p1b00b590fa">
   <rect x="54.02" y="248.825" width="583.18" height="69.215"/>
  </clipPath>
 </defs>
</svg>
